<svg xmlns="http://www.w3.org/2000/svg" width="69.558" height="115.933" viewBox="0 0 69.558 115.933">
  <path id="Path_3862" data-name="Path 3862" d="M155.9,54.1h-.05a9.56,9.56,0,0,0,1.982-5.8,9.678,9.678,0,0,0-8.589-9.6,6.929,6.929,0,0,0,2.792-5.854,9.643,9.643,0,0,0-8.467-9.541,6.743,6.743,0,0,0,.019-6.1L136.865,3.76a6.8,6.8,0,0,0-12.161,0l-6.726,13.452a6.743,6.743,0,0,0,.019,6.1,9.643,9.643,0,0,0-8.467,9.541,12.855,12.855,0,0,0,1.638,6.055,9.678,9.678,0,0,0-7.435,9.4,9.56,9.56,0,0,0,1.982,5.8h-.05a9.672,9.672,0,0,0-9.661,9.661v5.8a1.886,1.886,0,0,0,.031.346l7.729,44.411a1.932,1.932,0,0,0,1.9,1.615H155.9a1.932,1.932,0,0,0,1.905-1.615l7.729-44.411a1.885,1.885,0,0,0,.027-.346v-5.8A9.673,9.673,0,0,0,155.9,54.1Zm-36.611,25.92,11.493-9.85,11.493,9.854-3.571,32.041H122.862Zm2.143-61.086L128.16,5.49a2.933,2.933,0,0,1,5.248,0l6.726,13.448a2.935,2.935,0,0,1-2.624,4.251H124.058a2.935,2.935,0,0,1-2.624-4.251ZM107.6,48.306a5.8,5.8,0,0,1,5.5-5.8l1.9.632a7.759,7.759,0,0,0,3.824,1.264l21.111,5.758a1.933,1.933,0,0,0,1.016-3.729l-21.217-5.8-2.956-.985a9.352,9.352,0,0,1-3.385-6.8,5.8,5.8,0,0,1,5.8-5.8h23.186a5.8,5.8,0,0,1,5.8,5.8c0,.943-.012,3.772-5.553,3.864-1.944-.549-14.167-3.974-23.051-5.75a1.932,1.932,0,0,0-.757,3.787c9.45,1.892,22.832,5.7,23.028,5.76l5.723,1.907a1.933,1.933,0,0,0,.611.093,5.8,5.8,0,1,1,0,11.593H113.395a5.8,5.8,0,0,1-5.8-5.8ZM99.869,63.764a5.8,5.8,0,0,1,5.8-5.8H155.9a5.8,5.8,0,0,1,5.8,5.8v2.771L144.5,76.847,132.034,66.162a1.932,1.932,0,0,0-2.512,0L117.066,76.847l-17.2-10.312Zm7.433,48.3-6.772-40.63,14.914,8.942,3.52,31.688Zm46.963,0H142.6l3.52-31.688,14.914-8.948Z" transform="translate(-96.005 0)"/>
</svg>
