<svg id="Group_1328" data-name="Group 1328" xmlns="http://www.w3.org/2000/svg" width="86.944" height="31.423" viewBox="0 0 86.944 31.423">
  <path id="Path_3878" data-name="Path 3878" d="M140.491,313.231a23.676,23.676,0,0,0-23.468-21.586c-.138,0-.274.014-.413.016A28.4,28.4,0,0,0,97.174,284.4a28.908,28.908,0,0,0-19.2,7.294c-.245-.009-.485-.049-.725-.049a23.694,23.694,0,0,0-23.471,21.669l-.076,2.038,3.623.134.069-1.954a20.033,20.033,0,0,1,19.856-18.264,19.8,19.8,0,0,1,6.418,1.109,21.849,21.849,0,0,0-2.989,2.9,16.235,16.235,0,0,0-19.343,12.37,15.977,15.977,0,0,0-.272,1.63l-.112,1.811,3.623.225.1-1.7a12.679,12.679,0,0,1,25.163,0l.107-.014.107,1.712,3.623-.225-.123-1.7a3.623,3.623,0,1,1,7.245-.1l-.21,1.688,3.594.449.226-1.811a1.576,1.576,0,0,0,.013-.225,7.246,7.246,0,0,0-7.245-7.245,7.171,7.171,0,0,0-5.157,2.184,16.319,16.319,0,0,0-1.933-3.166,10.757,10.757,0,0,1,7.09-2.641,10.879,10.879,0,0,1,10.868,10.868h.154l-.04,1.422,3.623.1.034-1.253a5.434,5.434,0,0,1,10.461.127l.3,1.359,3.536-.79-.317-1.415a9.025,9.025,0,0,0-14.954-4.32,14.432,14.432,0,0,0-1.668-3.344,12.65,12.65,0,0,1,20.423,8.3l.181,1.811,3.623-.362-.192-1.851A16.317,16.317,0,0,0,122.3,299.789a22.889,22.889,0,0,0-2.34-4.275,20.041,20.041,0,0,1,16.927,18.032l.15,1.7,3.606-.322Zm-43.317-14.34a14.356,14.356,0,0,0-9.634,3.686,16.374,16.374,0,0,0-3.125-2.023,18.007,18.007,0,0,1,25.466-.024l.024.024a16.408,16.408,0,0,0-3.132,1.992A14.411,14.411,0,0,0,97.174,298.891Zm19.849,0a16.177,16.177,0,0,0-3.38.362A21.6,21.6,0,0,0,87.393,294a23.5,23.5,0,0,0-4.373-1.614,25.252,25.252,0,0,1,14.154-4.364c8.986,0,16.793,4.208,20.66,10.906C117.564,298.914,117.3,298.891,117.023,298.891Z" transform="translate(-53.702 -284.396)" fill="#fa962a"/>
  <path id="Path_3879" data-name="Path 3879" d="M129.529,385.562a9.065,9.065,0,0,0-8.785,6.851l-.453,2.038,3.536.79.44-1.982a5.434,5.434,0,0,1,10.544.061l.569,1.925,3.472-1.027-.543-1.862A9.057,9.057,0,0,0,129.529,385.562Z" transform="translate(-105.982 -363.822)" fill="#fa962a"/>
</svg>
