<svg xmlns="http://www.w3.org/2000/svg" width="108.681" height="48.91" viewBox="0 0 108.681 48.91">
  <path id="Path_3887" data-name="Path 3887" d="M110,311.57h-9.432a23.681,23.681,0,0,0-23.248-19.925c-.138,0-.274.014-.413.016A28.4,28.4,0,0,0,57.467,284.4a28.908,28.908,0,0,0-19.2,7.294c-.245-.009-.485-.049-.725-.049A23.679,23.679,0,0,0,14.3,311.57H4.938a1.812,1.812,0,0,0-1.811,1.811,19.948,19.948,0,0,0,19.925,19.925H91.883a19.948,19.948,0,0,0,19.925-19.925A1.811,1.811,0,0,0,110,311.57Zm-13.089,0h-3.7a16.329,16.329,0,0,0-10.624-11.786,22.886,22.886,0,0,0-2.34-4.275A20.068,20.068,0,0,1,96.907,311.57Zm-51.069,0a9.057,9.057,0,0,0-16.592,0h-3.84a12.668,12.668,0,0,1,24.272,0h-3.84Zm-4.251,0H33.5a5.422,5.422,0,0,1,8.089,0Zm15.88-16.3a18.116,18.116,0,0,1,12.73,5.287,16.41,16.41,0,0,0-3.132,1.992,14.418,14.418,0,0,0-19.233.022,16.377,16.377,0,0,0-3.125-2.023A18.03,18.03,0,0,1,57.467,295.268Zm6.988,16.3a7.213,7.213,0,0,0-12.15-3.26,16.2,16.2,0,0,0-1.927-3.155,10.757,10.757,0,0,1,7.089-2.641,10.878,10.878,0,0,1,10.705,9.057H64.455Zm-3.869,0H54.348a3.592,3.592,0,0,1,6.238,0Zm25.027,0a9.015,9.015,0,0,0-14.48-2.958,14.432,14.432,0,0,0-1.668-3.344,12.638,12.638,0,0,1,20,6.3H85.614v0Zm-4.251,0H73.273a5.422,5.422,0,0,1,8.089,0Zm-23.9-23.548c8.986,0,16.793,4.208,20.66,10.906-.27-.014-.543-.038-.811-.038a16.177,16.177,0,0,0-3.38.362A21.6,21.6,0,0,0,47.686,294a23.5,23.5,0,0,0-4.373-1.614A25.25,25.25,0,0,1,57.467,288.022Zm-19.925,7.246a19.8,19.8,0,0,1,6.418,1.109,21.848,21.848,0,0,0-2.989,2.9,16.23,16.23,0,0,0-19.322,12.3h-3.7A20.049,20.049,0,0,1,37.542,295.268Zm54.34,34.416H23.052a16.325,16.325,0,0,1-16.2-14.491H108.085A16.328,16.328,0,0,1,91.883,329.683Z" transform="translate(-3.127 -284.396)"/>
</svg>
