<svg xmlns="http://www.w3.org/2000/svg" width="92.088" height="70.798" viewBox="0 0 92.088 70.798">
  <path id="Path_3889" data-name="Path 3889" d="M162.419,10.3l-52.781,1.629-2.757-2.9a8.777,8.777,0,0,0-6.4-2.783H83.555A1.844,1.844,0,0,0,81.76,7.892a16.055,16.055,0,0,0,.346,14.519,12.053,12.053,0,0,1,0,11.421,16.029,16.029,0,0,0,0,15.192,12.053,12.053,0,0,1,0,11.421,16.023,16.023,0,0,0,0,15.194,12.054,12.054,0,0,1,.652,1.412l3.358-1.422a15.046,15.046,0,0,0-.868-1.878,12.062,12.062,0,0,1,0-11.421,16.019,16.019,0,0,0,0-15.192,12.062,12.062,0,0,1,0-11.421,15.726,15.726,0,0,0,1.2-2.851h3.335a10.383,10.383,0,0,1-.435.951,16.039,16.039,0,0,0,0,15.192,12.053,12.053,0,0,1,0,11.421,15.989,15.989,0,0,0-.5,14.19l3.27-1.637A12.019,12.019,0,0,1,92.5,62.316a16.019,16.019,0,0,0,0-15.192,12.059,12.059,0,0,1,0-11.419,15.837,15.837,0,0,0,1.165-2.851h6.814a8.778,8.778,0,0,0,6.4-2.783l2.739-2.874,52.518,3.256a9.79,9.79,0,0,0,10.127-9.508,9.918,9.918,0,0,0-9.06-10.628c-.261-.015-.524-.019-.785-.012Zm4.389,14.652a5.772,5.772,0,0,1-4.459,1.7l-53.328-3.3a1.777,1.777,0,0,0-1.388.553l-3.313,3.477a5.35,5.35,0,0,1-3.842,1.673H87.141a16.213,16.213,0,0,0-.255-3.8h9.348v-3.8H85.683c-.145-.314-.263-.639-.429-.951a11.678,11.678,0,0,1-1.087-2.851H96.234v-3.8H83.861a11.967,11.967,0,0,1,.929-3.8h15.688a5.345,5.345,0,0,1,3.842,1.669l3.313,3.477a1.725,1.725,0,0,0,1.333.557L162.529,14.1a6.118,6.118,0,0,1,6.162,6.092,6.439,6.439,0,0,1-1.878,4.76Z" transform="translate(-80.19 -6.254)"/>
</svg>
